<?xml version="1.0" encoding="UTF-8" standalone="no"?>
<!DOCTYPE svg PUBLIC "-//W3C//DTD SVG 1.1//EN" "http://www.w3.org/Graphics/SVG/1.1/DTD/svg11.dtd">
<!--Generated by Intaglio, www.PurgatoryDesign.com-->
<svg version="1.1" viewBox="138,224,254,82" width="254" height="82" xmlns="http://www.w3.org/2000/svg" xmlns:xlink="http://www.w3.org/1999/xlink"><g id="back"><path fill="#ff0" d="M256.625,240 C260.375,237.75,262.5,236.25,260.25,232 C257.244,226.322,266.129,220.129,270,227.875 C274.625,227.25,283.125,229.125,283.125,232.25 C283.125,235.375,284.5,234.125,287.125,233.375 C289.75,232.625,299.5,228.875,302.125,228.125 C298.5,232,290.903,240.645,280.903,243.484 C308.065,257.935,353.488,270.367,377.484,267.935 C387.032,266.968,394.774,273.484,389.29,280.387 C387.757,282.317,388.04,282.272,389.032,283.097 C391.36,285.032,394.71,300.194,378.839,300.903 C379.29,306.71,372.111,305.603,367.806,305.484 C363.161,305.355,359.032,306.581,356.516,303.097 C355.613,304.968,353.935,305.92,346.194,305.419 C340.527,305.053,338.516,306.323,336.258,304 C335.048,302.755,334.509,302.741,333.419,303.613 C332.129,304.645,331.548,305.548,326.387,305.419 C323.42,305.345,322.429,304.895,318.968,305.29 C300.903,307.355,294.323,300.645,291.097,292.387 C290.22,290.142,290.102,286.319,290.194,285.032 C290.323,283.226,290.065,283.484,288.258,283.355 C286.452,283.226,285.935,283.871,285.935,283.871 L285.677,289.032 C285.677,289.032,291.613,293.871,287.935,300.129 C284.351,306.229,275.87,304.619,269.935,304.774 C265,304.903,263.557,303.592,262.645,302.452 C262.129,301.806,261.267,302.79,259.871,303.484 C254.968,305.92,242.452,306.452,236.258,302.452 C234.71,303.226,234.195,304.181,232.903,304.71 C229.161,306.243,218.645,304.839,215.161,302.516 C214.516,302.903,214.968,303.757,212.903,304.903 C210.839,306.049,203.935,305.92,199.677,303.613 C197.742,304,198.065,305.742,194.968,305.484 C191.871,305.226,176.656,305.496,174,305.548 C170.71,305.613,171.091,304.189,169.677,304.645 C167.677,305.29,165.416,305.12,162.452,305.419 C147.742,306.903,140.006,298.851,138.903,289.097 C138.065,281.677,140.089,281.469,139.548,280.065 C138.903,278.387,138.025,275.109,139.097,273.419 C142.452,268.129,145.935,267.871,157.419,267.871 C199.872,267.871,237.935,249.032,243.742,246.452 Z"/></g><g id="front"><g><g><path fill="#ff0" d="M265.409,239.86 L192.442,274.16 L338.376,274.16 L265.409,239.86 Z"/><path fill="#f00" d="M264.509,238.078 L265.446,238.078 C284.454,251.935,333.991,269.506,364.329,270.792 C370.089,270.792,380.265,270.792,380.265,270.792 C391.594,270.792,392.554,284.935,373.546,278.507 L373.274,278.507 C372.059,279.768,369.285,280.65,366.057,280.65 C362.829,280.65,360.055,279.768,358.84,278.507 L357.53,278.507 C356.315,279.768,353.54,280.65,350.312,280.65 C347.085,280.65,344.31,279.768,343.096,278.507 L341.785,278.507 C340.57,279.768,337.796,280.65,334.568,280.65 C331.34,280.65,328.565,279.768,327.351,278.507 L326.04,278.507 C324.826,279.768,322.051,280.65,318.823,280.65 C315.595,280.65,312.821,279.768,311.606,278.507 L310.296,278.507 C309.081,279.768,306.307,280.65,303.079,280.65 C299.851,280.65,297.077,279.768,295.862,278.507 L294.552,278.507 C293.336,279.768,290.562,280.65,287.334,280.65 C284.106,280.65,281.332,279.768,280.117,278.507 L278.807,278.507 C277.592,279.768,274.818,280.65,271.589,280.65 C268.361,280.65,265.587,279.768,264.372,278.507 L263.062,278.507 C261.847,279.768,259.073,280.65,255.844,280.65 C252.616,280.65,249.842,279.768,248.627,278.507 L247.317,278.507 C246.102,279.768,243.328,280.65,240.1,280.65 C236.872,280.65,234.098,279.768,232.882,278.507 L231.572,278.507 C230.357,279.768,227.583,280.65,224.355,280.65 C221.127,280.65,218.353,279.768,217.138,278.507 L215.828,278.507 C214.613,279.768,211.839,280.65,208.611,280.65 C205.383,280.65,202.608,279.768,201.394,278.507 L200.083,278.507 C198.869,279.768,196.094,280.65,192.866,280.65 C189.638,280.65,186.864,279.768,185.649,278.507 L184.339,278.507 C183.124,279.768,180.349,280.65,177.121,280.65 C173.893,280.65,171.119,279.768,169.904,278.507 L168.594,278.507 C167.379,279.768,164.605,280.65,161.377,280.65 C158.611,280.65,156.178,280.002,154.774,279.024 C137.465,284.111,138.694,270.792,149.688,270.792 C149.688,270.792,159.864,270.792,165.624,270.792 C195.962,269.506,245.499,251.935,264.509,238.078 Z M266.79,241.935 C272.741,255.078,285.03,265.65,293.094,273.078 C293.094,273.078,325.16,273.078,334.376,273.078 C319.783,270.65,276.006,248.792,266.79,241.935 Z M263.165,241.935 C253.947,248.792,210.17,270.65,195.577,273.078 C204.794,273.078,236.859,273.078,236.859,273.078 C244.923,265.65,257.212,255.078,263.165,241.935 Z"/></g><path fill="#00f" d="M144.849,296.177 C145.168,296.491,145.516,296.804,145.777,297.162 C146.242,297.609,146.677,298.102,147.112,298.549 C149.171,300.608,150.912,301.145,152.188,301.548 C153.088,301.816,153.958,302.04,154.857,302.174 C155.989,302.353,157.149,302.353,158.193,302.532 C159.441,302.756,160.891,302.89,161.268,302.89 C162.777,302.89,163.386,302.846,164.227,302.756 C164.663,302.711,166.49,302.667,166.896,302.622 C167.882,302.488,169.13,301.816,169.565,301.235 C169.942,300.832,170,300.384,170,299.847 C170,299.444,170,299.176,169.913,298.415 C169.855,297.609,169.797,296.848,169.797,296.043 C169.797,295.64,169.855,293.939,169.855,293.581 C169.855,291.299,169.072,290.538,166.49,290.538 L166.345,290.538 L166.113,290.538 C165.068,290.583,163.212,290.941,162.487,290.941 C161.936,290.941,159.035,290.717,157.99,289.643 C157.642,289.285,157.033,288.256,156.917,287.853 C156.743,287.495,156.714,287.137,156.714,286.779 C156.714,284.899,157.99,284.138,158.6,283.78 C159.035,283.556,159.76,283.154,161.558,283.064 L162.052,283.064 L163.096,283.109 C163.444,283.109,164.778,282.975,165.068,282.975 C165.388,282.975,166.954,283.109,167.215,283.109 C168.289,283.109,169.623,282.975,169.623,280.558 C169.623,280.021,169.275,277.604,169.246,277.067 L169.246,276.754 C169.246,276.262,169.449,274.158,169.449,273.755 C169.449,273.263,169.449,272.458,169.391,272.279 C169.13,271.697,167.941,271.339,167.679,271.249 C166.055,270.757,162.719,270.757,160.775,270.757 C158.6,270.757,157.584,270.936,155.582,271.294 C151.811,272.01,151.637,272.1,149.23,273.576 C146.677,275.098,146.387,275.277,145.4,276.351 C144.936,276.843,144.501,277.381,144.211,277.918 C143.834,278.544,143.602,279.215,143.283,279.842 C142.935,280.558,142.441,281.23,142.151,281.99 C141.89,282.885,141.6,285.168,141.6,286.152 C141.6,286.6,141.658,286.958,141.948,288.659 C142.064,289.151,142.093,289.688,142.151,290.18 C142.673,293.939,144.066,295.372,144.849,296.177 Z"/><path fill="#00f" d="M171.917,293.349 C172.05,293.88,172.065,294.941,172.065,294.97 C172.065,294.97,171.956,296.149,171.958,296.267 C171.962,296.591,171.966,296.886,171.971,297.21 L172.012,300.188 C172.015,300.394,171.902,301.307,171.904,301.484 C171.922,302.781,173.434,302.871,174.943,302.873 C175.447,302.874,177.836,302.788,178.34,302.788 C178.717,302.788,180.606,302.877,180.983,302.877 C182.493,302.877,183.494,302.464,183.48,301.462 C183.479,301.433,183.347,300.961,183.344,300.725 C183.212,300.254,183.08,299.782,183.072,299.31 C183.069,299.045,183.173,297.483,183.172,297.424 C183.171,297.336,183.165,296.923,183.164,296.835 C183.162,296.687,183.025,295.891,183.022,295.714 C183.019,295.449,183.015,295.184,183.011,294.919 L182.977,292.413 C182.974,292.266,182.972,292.119,182.971,292.001 C182.963,291.411,183.08,290.821,183.197,290.202 C183.195,290.055,183.193,289.878,183.191,289.701 C183.184,289.171,182.899,286.872,182.893,286.4 C182.888,285.988,183.112,284.071,183.107,283.688 C183.103,283.364,183.097,283.01,182.588,282.569 C182.079,282.186,181.699,281.95,179.685,281.949 C179.434,281.949,178.679,281.979,177.924,282.007 C177.171,282.066,176.416,282.095,176.164,282.094 C175.912,282.094,175.786,282.064,175.661,282.064 C175.031,282.034,174.4,281.915,173.771,281.915 C173.268,281.914,172.513,281.972,172.017,282.473 C171.769,282.767,171.651,283.327,171.656,283.622 C171.658,283.769,171.94,285.951,171.945,286.363 C171.949,286.629,171.84,287.808,171.843,288.043 C171.849,288.486,171.856,288.957,171.862,289.429 C171.869,289.9,171.875,290.343,171.882,290.814 C171.889,291.345,171.896,291.846,171.903,292.376 Z M185.037,286.781 C185.041,287.076,185.312,288.403,185.316,288.668 L185.323,289.228 C185.324,289.346,185.33,289.729,185.331,289.788 L185.374,292.883 C185.377,293.148,185.267,294.239,185.27,294.474 C185.272,294.622,185.281,295.27,185.283,295.417 C185.289,295.801,185.168,296.213,185.174,296.626 C185.174,296.626,185.312,297.511,185.314,297.599 C185.319,297.953,185.335,299.161,185.341,299.545 C185.347,299.957,185.35,300.193,185.234,300.93 C185.237,301.107,185.114,301.313,185.116,301.52 C185.126,302.198,185.639,302.875,187.023,302.873 C187.4,302.872,188.783,302.751,189.16,302.75 C189.411,302.749,190.42,302.864,190.672,302.864 C190.924,302.892,191.175,302.891,191.427,302.89 C191.679,302.889,193.314,302.824,193.565,302.823 C193.817,302.822,194.825,302.875,195.076,302.874 C196.208,302.868,196.705,302.393,196.694,301.627 C196.692,301.509,196.692,301.42,196.69,301.332 C196.562,301.186,196.56,301.038,196.432,300.862 C196.429,300.685,196.423,300.272,196.421,300.066 C196.415,299.683,196.661,299.239,197.165,299.236 C197.416,299.234,197.921,299.349,198.047,299.378 C198.047,299.407,199.822,300.366,199.95,300.454 C200.33,300.657,200.71,300.831,201.089,301.004 C202.103,301.526,204.003,302.422,205.139,302.646 C205.895,302.786,207.783,302.764,207.909,302.762 C208.537,302.755,209.04,302.719,209.67,302.711 C209.795,302.709,210.425,302.731,210.55,302.729 C211.431,302.717,212.435,302.526,212.413,300.935 C212.405,300.374,212.271,299.816,212.264,299.286 C212.26,299.021,212.496,297.838,212.492,297.602 C212.471,296.04,210.961,296.061,210.332,296.069 C210.206,296.071,209.453,296.169,209.201,296.172 C209.075,296.203,208.322,296.242,208.195,296.243 C207.944,296.247,207.187,296.138,207.061,296.08 C206.683,296.026,206.428,295.852,206.426,295.645 C206.42,295.292,206.796,295.17,207.173,295.077 C209.177,294.404,209.8,293.983,210.786,292.555 C211.404,291.692,211.528,291.542,211.76,290.154 C212.003,289.56,212.001,289.413,211.997,289.148 C211.993,288.794,211.723,287.531,211.21,286.829 C211.081,286.596,210.824,286.216,210.569,286.013 C210.442,285.867,210.314,285.721,210.186,285.576 C210.057,285.371,209.928,285.166,209.8,284.992 C209.672,284.845,209.419,284.702,209.291,284.556 C208.908,284.148,208.908,284.118,208.399,283.771 C207.131,283.079,207.005,283.021,206.246,282.765 C205.361,282.48,204.983,282.425,204.101,282.287 C202.588,282.066,201.831,281.955,200.573,281.966 C200.321,281.968,198.938,282.008,198.686,282.01 C197.805,281.987,196.923,281.875,196.168,281.879 C195.916,281.881,193.401,282.012,193.024,282.014 C192.772,282.015,192.143,281.988,192.017,281.989 C191.765,281.99,190.884,281.934,190.632,281.935 C190.38,281.936,189.122,281.91,188.87,281.94 C188.242,282.001,188.117,282.001,187.739,282.002 C186.607,282.034,185.604,282.301,185.237,283.009 C184.989,283.304,184.994,283.687,184.999,284.07 C185.003,284.276,185.014,285.131,185.017,285.337 Z M197.646,288.62 C197.772,288.62,197.897,288.648,198.402,288.733 C198.528,288.761,198.78,288.76,198.906,288.759 C199.914,288.81,199.914,288.81,200.419,289.013 C201.052,289.273,201.432,289.475,201.444,290.301 C201.45,290.743,201.325,290.832,200.826,291.161 C200.328,291.548,200.329,291.578,199.326,291.822 C198.949,291.913,198.197,292.095,197.443,292.1 C196.813,292.104,196.182,291.961,196.171,291.136 C196.169,291.047,196.29,290.663,196.289,290.575 C196.287,290.487,196.156,290.075,196.155,289.986 C196.143,289.131,196.136,288.63,197.646,288.62 Z M215.27,298.327 C215.525,298.53,215.779,298.732,215.909,298.966 C216.29,299.255,216.547,299.575,216.928,299.864 C218.456,301.195,219.719,301.528,220.603,301.778 C221.235,301.945,221.866,302.081,222.497,302.159 C223.379,302.261,224.133,302.247,225.015,302.349 C225.898,302.481,226.905,302.551,227.157,302.546 C228.289,302.525,228.667,302.489,229.294,302.418 C229.672,302.382,230.929,302.329,231.18,302.295 C231.934,302.193,232.808,301.734,233.18,301.344 C233.428,301.074,233.424,300.779,233.419,300.425 C233.416,300.16,233.413,299.983,233.406,299.482 C233.273,298.954,233.266,298.452,233.258,297.922 C233.254,297.657,233.239,296.537,233.236,296.301 C233.215,294.798,232.705,294.306,230.818,294.341 L230.692,294.343 L230.566,294.346 C229.812,294.389,228.431,294.65,227.928,294.66 C227.551,294.667,225.41,294.559,224.646,293.865 C224.391,293.633,224.004,292.962,223.874,292.7 C223.745,292.465,223.742,292.23,223.739,291.994 C223.722,290.756,224.595,290.239,225.095,289.994 C225.345,289.842,225.97,289.566,227.227,289.484 L227.605,289.477 L228.36,289.492 C228.611,289.488,229.491,289.383,229.742,289.378 C229.994,289.374,231.127,289.441,231.253,289.438 C232.008,289.424,233.013,289.318,232.991,287.726 C232.985,287.372,232.712,285.785,232.707,285.432 L232.704,285.225 C232.699,284.901,232.807,283.513,232.803,283.248 C232.798,282.923,232.79,282.393,232.789,282.275 C232.532,281.897,231.774,281.675,231.522,281.621 C230.385,281.317,227.869,281.364,226.485,281.39 C224.976,281.417,224.222,281.549,222.842,281.809 C220.081,282.329,219.956,282.39,218.209,283.392 C216.335,284.425,216.211,284.545,215.466,285.264 C215.093,285.594,214.847,285.952,214.6,286.309 C214.354,286.726,214.235,287.17,213.989,287.586 C213.744,288.061,213.372,288.509,213.128,289.014 C213.01,289.605,212.779,291.112,212.788,291.76 C212.792,292.055,212.922,292.289,213.063,293.408 C213.193,293.73,213.199,294.083,213.203,294.408 C213.615,296.878,214.634,297.807,215.27,298.327 Z M256.932,281.137 L256.68,281.14 C256.554,281.141,256.554,281.112,256.428,281.114 L255.044,281.128 C254.793,281.131,254.414,281.077,254.037,281.081 C253.66,281.086,252.906,281.213,252.656,281.275 C251.903,281.491,251.912,282.08,251.915,282.316 C251.917,282.493,252.053,283.228,252.056,283.376 C252.057,283.493,251.939,284.026,251.941,284.144 C251.942,284.291,252.078,284.938,252.079,285.056 C252.088,285.675,251.971,286.325,251.98,286.944 C251.984,287.268,252.255,288.65,252.259,288.945 C252.261,289.063,252.144,289.684,252.145,289.801 C252.149,290.126,252.28,290.448,252.284,290.743 C252.287,290.949,252.047,291.778,252.049,291.954 C252.051,292.132,252.189,292.955,252.065,293.134 C252.078,293.989,251.953,294.108,251.204,294.531 C250.58,294.893,250.581,294.922,250.079,294.988 C249.954,295.049,249.702,295.052,249.576,295.054 C249.45,295.056,248.82,295.006,248.82,295.006 C248.442,294.981,248.192,295.015,247.939,294.989 C247.687,294.963,246.929,294.739,246.55,294.567 C246.422,294.452,246.167,294.22,246.039,294.015 C245.655,293.579,245.651,293.255,245.645,292.901 C245.641,292.606,245.624,291.398,245.621,291.132 C245.62,291.103,245.485,290.427,245.485,290.397 C245.477,289.867,245.722,289.332,245.714,288.802 C245.712,288.626,245.709,288.448,245.706,288.271 C245.704,288.065,245.692,287.21,245.816,287.061 C245.813,286.884,245.929,286.204,245.927,286.057 C245.923,285.791,245.655,284.587,245.652,284.322 C245.65,284.175,245.648,284.027,245.772,283.877 C245.77,283.73,245.886,283.05,245.884,282.932 C245.862,281.311,244.351,281.276,243.345,281.293 L242.464,281.307 C242.212,281.311,241.457,281.294,241.206,281.299 C240.828,281.305,238.691,281.401,238.188,281.411 C237.936,281.415,236.929,281.374,236.677,281.378 C236.048,281.39,235.293,281.404,234.923,281.911 C234.801,282.179,234.68,282.506,234.684,282.8 C234.686,282.918,234.693,283.508,234.695,283.655 C234.699,283.92,234.591,285.191,234.595,285.455 C234.6,285.839,234.749,287.458,234.753,287.782 C234.757,288.047,234.772,289.196,234.776,289.403 C234.777,289.521,234.783,289.963,234.784,290.052 C234.787,290.287,234.791,290.553,234.795,290.788 C234.798,291.024,234.813,292.115,234.816,292.321 C234.82,292.616,234.837,293.854,234.841,294.119 C234.845,294.355,234.86,295.446,234.862,295.652 C234.868,296.035,234.868,296.065,234.87,296.212 C234.999,296.386,235.519,297.615,235.519,297.674 C235.775,297.905,236.03,298.137,236.159,298.399 C236.287,298.544,236.414,298.69,236.543,298.835 C237.058,299.71,238.452,300.422,238.958,300.62 C239.211,300.733,240.603,301.298,240.857,301.412 C241.491,301.784,241.617,301.841,241.996,301.923 C242.249,302.037,244.269,302.475,245.149,302.461 C245.275,302.459,245.905,302.508,246.031,302.506 C246.283,302.502,247.162,302.43,247.288,302.428 C247.539,302.424,248.169,302.445,248.672,302.467 C249.176,302.489,249.806,302.51,249.931,302.508 L250.435,302.501 C250.812,302.466,251.44,302.399,251.44,302.399 C251.565,302.368,251.817,302.365,252.069,302.361 C252.32,302.358,253.201,302.376,253.453,302.373 C254.207,302.364,256.343,302.134,257.719,301.53 C257.969,301.409,258.218,301.259,258.468,301.139 C258.593,301.05,258.844,300.959,258.968,300.869 C259.843,300.478,260.464,299.882,260.586,299.616 C260.834,299.349,261.082,299.022,261.203,298.727 C261.451,298.43,261.824,298.132,261.946,297.836 C262.069,297.629,262.191,297.392,262.188,297.157 C262.311,296.92,262.433,296.713,262.556,296.476 C263.045,295.499,263.147,293.789,263.147,293.73 C263.145,293.582,263.011,292.964,263.009,292.847 C262.998,292.11,263.114,291.402,263.105,290.694 C263.098,290.223,263.092,289.78,262.959,289.31 C262.952,288.779,262.95,288.631,262.947,288.396 C262.944,288.219,263.053,286.98,263.051,286.833 C263.047,286.508,263.168,286.183,263.163,285.859 C263.287,285.711,263.277,284.973,263.275,284.826 C263.273,284.709,263.141,284.238,263.139,284.149 C263.135,283.855,263.257,283.589,263.253,283.323 C263.248,282.91,263.108,281.909,262.726,281.588 C262.598,281.471,262.092,281.209,261.966,281.152 C261.586,281.037,260.705,281.014,260.579,281.015 C260.076,281.019,259.699,281.082,259.197,281.115 Z M266.814,295.004 C266.31,295.007,265.685,295.246,265.312,295.632 C265.067,296.075,265.074,296.576,265.076,296.783 C265.08,296.989,265.094,298.021,265.097,298.227 C265.099,298.375,265.108,299.082,265.11,299.229 C265.113,299.376,265.132,300.792,265.261,300.968 C265.391,301.262,265.897,301.494,266.528,301.638 C267.412,301.811,268.292,301.806,269.048,301.891 C269.3,301.89,269.552,301.918,269.804,301.947 C270.308,301.975,270.685,301.973,271.063,302.001 C271.315,302.001,272.323,302.116,272.575,302.115 L273.078,302.114 C273.204,302.114,273.834,302.142,273.959,302.141 C274.211,302.141,275.72,302.108,275.972,302.108 C277.86,302.136,278.112,302.136,279.493,301.929 C280.12,301.811,280.748,301.722,281.748,301.28 C282.124,301.133,282.373,300.957,282.749,300.809 C282.873,300.721,283.124,300.633,283.374,300.544 C283.623,300.368,283.872,300.162,284.121,299.985 C284.37,299.838,284.62,299.72,284.745,299.573 C285.244,299.278,285.862,298.483,286.105,297.894 C286.226,297.54,286.095,297.157,286.216,296.804 C286.213,296.597,286.325,295.595,286.322,295.389 C286.312,294.711,285.921,293.649,285.791,293.384 C285.663,293.207,285.534,293.059,285.407,292.912 C285.279,292.735,285.276,292.529,285.148,292.352 C285.02,292.204,284.51,291.761,284.382,291.614 C284.127,291.349,282.602,290.286,281.589,289.844 C281.209,289.638,280.703,289.46,280.197,289.284 C279.691,289.077,279.311,288.871,278.805,288.694 C278.299,288.488,277.416,288.312,276.659,288.165 C275.649,287.96,275.142,287.637,275.138,287.372 C275.135,287.165,275.509,286.958,276.39,286.957 C276.516,286.957,276.768,286.957,276.894,286.986 C277.146,287.015,277.399,287.074,277.776,287.103 C278.281,287.162,278.784,287.132,279.162,287.22 C279.793,287.338,280.803,287.545,280.803,287.545 C281.054,287.545,282.058,287.368,282.182,287.28 C282.182,287.25,282.932,286.897,283.179,286.573 C283.177,286.396,283.299,286.131,283.291,285.571 L283.266,283.743 C283.245,282.27,283.243,282.063,282.859,281.65 C282.094,280.913,280.079,280.765,279.953,280.765 C279.827,280.736,276.302,280.65,276.05,280.65 C275.674,280.65,273.913,280.741,273.536,280.742 C272.403,280.745,272.403,280.745,271.399,280.895 C269.64,281.137,268.012,281.645,267.016,282.387 C266.766,282.535,266.643,282.713,266.394,282.891 C265.895,283.277,265.646,283.426,265.4,283.899 C265.153,284.195,265.032,284.52,264.911,284.816 C264.786,284.964,264.663,285.112,264.665,285.259 C264.294,285.763,264.177,286.413,264.182,286.766 C264.182,286.766,264.19,287.296,264.19,287.355 C264.321,287.65,264.325,287.944,264.328,288.239 C264.465,289.005,265.365,290.355,265.493,290.531 C265.493,290.56,266.895,291.791,267.277,292.113 C267.531,292.288,268.163,292.551,268.923,292.931 C269.177,293.018,269.938,293.457,270.19,293.515 C270.697,293.749,272.593,294.422,272.972,294.509 C273.098,294.538,273.225,294.567,273.351,294.596 C273.478,294.655,273.73,294.713,273.857,294.772 C274.109,294.801,274.235,294.83,274.487,294.889 C274.866,294.976,275.247,295.212,275.25,295.448 C275.253,295.654,274.88,295.979,274.251,295.98 C274.251,295.98,272.991,295.865,272.235,295.749 C271.73,295.692,271.353,295.663,270.848,295.606 C270.596,295.548,270.218,295.49,269.966,295.461 C269.587,295.404,269.336,295.405,268.957,295.348 C268.705,295.29,268.578,295.231,268.326,295.203 C268.2,295.174,267.948,295.175,267.57,295.118 C267.318,295.09,267.191,295.032,266.814,295.004 Z"/><path fill="#00f" d="M322.845,301.369 L322.949,301.791 L323.159,302.111 L323.367,302.342 L323.679,302.5 L323.99,302.598 L324.301,302.65 L324.507,302.671 L324.507,302.675 L324.713,302.665 L325.021,302.644 L325.328,302.623 L325.634,302.613 L325.837,302.618 L326.142,302.63 L326.446,302.64 L326.547,302.645 L326.95,302.64 L327.451,302.63 L327.951,302.62 L328.25,302.615 L328.548,302.625 L329.042,302.647 L329.533,302.669 L329.828,302.679 L330.121,302.663 L330.413,302.572 L330.802,302.34 L331.19,301.904 L331.287,301.658 L331.383,301.286 L331.48,300.921 L331.672,300.693 L331.961,300.43 L332.345,300.247 L332.727,300.139 L333.107,300.105 L333.487,300.125 L334.054,300.169 L334.619,300.212 L335.088,300.233 L335.368,300.23 L335.554,300.203 L335.833,300.184 L336.204,300.143 L336.575,300.1 L336.667,300.082 L337.22,300.146 L337.587,300.383 L337.862,300.858 L338.228,301.64 L338.501,302.178 L338.774,302.513 L339.137,302.683 L339.77,302.733 L339.861,302.728 L340.041,302.718 L340.221,302.708 L340.401,302.704 L340.67,302.72 L341.029,302.737 L341.386,302.781 L341.654,302.801 L342.01,302.788 L342.543,302.758 L343.075,302.727 L343.428,302.714 L344.044,302.715 L344.396,302.714 L344.571,302.705 L344.746,302.687 L345.271,302.477 L345.708,302.112 L345.969,301.577 L346.056,300.858 L345.969,300.625 L345.969,300.392 L345.969,300.178 L345.882,299.734 L345.795,299.285 L345.708,299.053 L345.621,298.925 L345.533,298.727 L345.446,298.528 L345.446,298.4 L345.184,297.529 L345.096,296.972 L345.009,296.44 L344.834,295.911 L344.659,295.381 L344.571,294.961 L344.396,294.541 L344.132,293.607 L343.956,292.845 L343.78,292.082 L343.604,291.217 L343.428,290.616 L343.34,290.127 L343.251,289.594 L343.163,288.913 L343.075,288.438 L342.986,288.005 L342.809,287.447 L342.632,286.916 L342.454,286.353 L342.277,285.832 L342.188,285.424 L341.921,284.335 L341.921,284.04 L341.832,283.744 L341.743,283.331 L341.565,282.799 L341.386,282.295 L341.297,281.97 L340.939,281.444 L340.491,281.035 L340.221,280.925 L339.861,280.834 L339.409,280.773 L339.046,280.75 L338.865,280.755 L338.592,280.765 L338.319,280.775 L338.045,280.778 L337.679,280.758 L337.128,280.714 L336.575,280.669 L336.204,280.65 L336.019,280.659 L335.74,280.679 L335.461,280.7 L335.368,280.709 L334.994,280.732 L334.431,280.75 L333.865,280.763 L333.392,280.767 L333.203,280.765 L332.917,280.757 L332.631,280.746 L332.249,280.734 L331.865,280.722 L331.576,280.712 L331.287,280.704 L331.19,280.701 L330.802,280.707 L330.413,280.755 L330.024,280.883 L329.533,281.134 L329.14,281.417 L328.943,281.744 L328.745,282.1 L328.646,282.47 L328.448,283.026 L328.25,283.558 L328.15,284.113 L327.951,284.645 L327.951,284.801 L327.852,285.098 L327.752,285.491 L327.552,285.935 L327.351,286.385 L327.151,286.796 L327.05,287.122 L326.95,287.318 L326.648,288.437 L326.547,288.806 L326.446,289.152 L326.041,290.178 L325.736,291.204 L325.43,292.54 L325.123,293.877 L324.507,295.68 L324.301,296.15 L324.197,296.644 L323.887,297.832 L323.679,298.691 L323.471,299.289 L323.263,299.69 L323.054,300.237 L322.949,300.634 L322.845,300.98 L322.845,301.369 Z M334.994,288.17 L335.275,288.222 L335.461,288.354 L335.554,288.526 L335.554,288.7 L335.74,289.198 L335.833,289.696 L336.112,290.318 L336.204,290.816 L336.297,291.313 L336.39,291.706 L336.482,292.122 L336.482,292.495 L336.482,292.781 L336.39,292.984 L336.204,293.106 L335.74,293.146 L335.554,293.14 L335.368,293.13 L335.181,293.119 L334.994,293.114 L334.525,293.112 L334.243,293.107 L334.054,293.098 L333.96,293.08 L333.582,292.834 L333.487,292.333 L333.582,291.945 L333.677,291.373 L333.771,290.808 L333.865,290.437 L334.054,289.842 L334.149,289.474 L334.243,289.223 L334.337,288.977 L334.525,288.576 L334.713,288.329 L334.9,288.204 L334.994,288.17 Z M346.056,290.164 L346.056,290.439 L346.056,290.841 L346.056,291.326 L346.056,291.85 L346.056,292.372 L346.056,292.848 L346.056,293.235 L345.969,293.489 L345.969,293.714 L345.969,294.039 L345.969,294.429 L345.969,294.85 L345.969,295.268 L345.969,295.65 L345.969,295.96 L346.056,296.164 L346.056,296.376 L346.056,296.689 L346.056,297.072 L346.056,297.497 L346.056,297.931 L346.056,298.345 L346.056,298.709 L345.969,298.992 L345.882,299.719 L345.795,300.422 L345.795,300.733 L345.882,301.611 L346.23,302.351 L346.578,302.569 L346.839,302.68 L347.099,302.722 L347.359,302.729 L348.05,302.732 L348.568,302.703 L348.999,302.673 L349.601,302.707 L350.116,302.74 L350.288,302.731 L350.545,302.711 L350.802,302.691 L350.973,302.682 L351.23,302.697 L351.657,302.731 L352.085,302.765 L352.341,302.781 L352.853,302.758 L353.28,302.63 L353.535,302.314 L353.621,301.73 L353.621,301.532 L353.621,301.08 L353.621,300.588 L353.535,300.268 L353.535,299.95 L353.535,299.475 L353.535,299 L353.621,298.683 L353.621,298.388 L353.621,297.936 L353.621,297.484 L353.535,297.19 L353.535,296.697 L353.621,296.227 L353.621,295.994 L353.535,295.76 L353.535,295.614 L353.535,295.406 L353.535,295.205 L353.45,295.075 L353.535,294.833 L353.706,294.692 L353.876,294.627 L353.962,294.612 L354.047,294.624 L354.217,294.709 L354.473,294.941 L354.813,295.392 L354.984,295.622 L355.154,295.829 L355.41,296.044 L355.58,296.235 L355.75,296.44 L355.92,296.563 L356.006,296.639 L356.176,296.704 L356.432,296.799 L356.687,296.726 L356.942,296.537 L357.198,296.278 L357.454,295.995 L357.539,295.824 L357.624,295.653 L357.795,295.441 L358.051,295.251 L358.307,294.91 L358.477,294.721 L358.733,294.485 L358.99,294.284 L359.075,294.198 L359.246,294.251 L359.417,294.398 L359.502,294.633 L359.502,294.946 L359.502,295.245 L359.502,295.673 L359.502,296.097 L359.502,296.377 L359.502,296.543 L359.502,296.796 L359.502,297.05 L359.502,297.216 L359.502,297.334 L359.502,297.508 L359.502,297.676 L359.417,297.776 L359.417,298.149 L359.417,298.272 L359.417,298.459 L359.417,298.647 L359.417,298.77 L359.417,299.05 L359.502,299.47 L359.587,299.891 L359.587,300.17 L359.502,300.702 L359.502,301.258 L359.502,301.639 L359.587,301.97 L359.673,302.248 L359.844,302.476 L360.101,302.653 L360.443,302.779 L360.872,302.855 L361.215,302.882 L361.472,302.869 L361.816,302.837 L362.16,302.807 L362.419,302.793 L362.591,302.767 L362.763,302.764 L363.108,302.77 L363.627,302.783 L364.146,302.796 L364.493,302.802 L364.754,302.845 L365.102,302.867 L365.276,302.857 L365.624,302.834 L365.973,302.804 L366.149,302.778 L366.674,302.513 L366.937,302.143 L367.025,301.749 L367.113,301.413 L367.201,301.064 L367.201,300.853 L367.201,300.714 L367.201,300.574 L367.201,300.1 L367.113,299.396 L367.025,298.697 L367.025,298.241 L367.025,296.749 L366.937,296.143 L366.937,295.536 L366.937,293.826 L366.937,293.433 L366.937,292.851 L366.937,292.275 L366.849,291.899 L366.849,291.592 L366.849,291.131 L366.849,290.574 L366.849,289.979 L366.849,289.404 L366.849,288.908 L366.849,288.549 L367.025,288.386 L367.025,288.188 L367.025,287.893 L367.025,287.604 L366.937,287.422 L366.937,286.965 L366.937,286.353 L366.937,285.748 L366.937,285.308 L366.937,284.911 L366.937,284.348 L366.937,283.721 L367.025,283.132 L367.113,282.787 L367.113,282.418 L367.113,281.964 L367.025,281.6 L366.849,281.317 L366.586,281.106 L366.323,280.957 L365.973,280.861 L365.537,280.809 L365.015,280.793 L364.32,280.794 L363.54,280.818 L362.936,280.858 L362.419,280.875 L362.16,280.875 L362.074,280.874 L362.074,280.859 L361.988,280.842 L361.386,280.84 L361.215,280.849 L360.957,280.869 L360.7,280.89 L360.443,280.898 L360.186,280.92 L360.015,281.083 L359.844,281.241 L359.673,281.423 L359.417,281.703 L359.16,282.113 L358.904,282.571 L358.733,282.893 L358.562,283.191 L358.307,283.625 L358.221,283.858 L358.136,284.091 L357.965,284.335 L357.795,284.575 L357.709,284.775 L357.709,284.897 L357.539,285.025 L357.454,285.114 L357.369,285.201 L357.369,285.331 L357.283,285.452 L357.113,285.629 L356.942,285.788 L356.687,285.856 L356.346,285.691 L355.92,285.294 L355.665,284.954 L355.495,284.732 L355.41,284.557 L355.239,284.358 L355.154,284.204 L354.984,283.906 L354.728,283.56 L354.473,283.266 L354.302,282.986 L354.132,282.705 L353.876,282.176 L353.621,281.646 L353.28,281.212 L352.938,280.955 L352.512,280.832 L351.999,280.799 L351.657,280.802 L351.059,280.826 L350.716,280.83 L350.459,280.839 L350.202,280.849 L350.116,280.854 L349.944,280.847 L349.687,280.832 L349.343,280.811 L348.999,280.786 L348.654,280.762 L348.309,280.741 L348.05,280.726 L347.878,280.72 L347.272,280.743 L346.839,280.805 L346.578,280.885 L346.491,280.963 L346.143,281.343 L345.969,281.87 L345.882,282.456 L345.882,283.012 L345.882,283.464 L345.882,284.066 L345.969,284.731 L346.056,285.376 L346.143,286.076 L346.143,286.775 L346.143,287.155 L346.143,287.739 L346.143,288.323 L346.056,288.702 L346.056,288.992 L346.056,289.433 L346.056,289.874 L346.056,290.164 Z M367.817,299.426 L367.817,299.856 L367.817,300.49 L367.817,301.113 L367.729,301.509 L367.817,302.064 L367.994,302.496 L368.436,302.779 L369.146,302.881 L369.413,302.868 L369.859,302.837 L370.306,302.806 L370.665,302.793 L370.934,302.809 L371.294,302.826 L371.655,302.87 L371.927,302.89 L372.198,302.877 L372.653,302.845 L373.108,302.815 L373.383,302.801 L373.566,302.806 L373.933,302.818 L374.301,302.83 L374.486,302.836 L374.763,302.832 L375.04,302.812 L375.319,302.76 L375.597,302.663 L375.784,302.506 L375.97,302.275 L376.064,301.956 L376.064,301.534 L376.064,301.437 L376.064,301.3 L375.97,301.07 L375.877,300.693 L375.877,300.383 L375.877,300.052 L375.877,299.762 L375.784,299.574 L375.784,299.174 L375.877,298.874 L376.064,298.658 L376.251,298.514 L376.532,298.427 L376.814,298.383 L377.002,298.367 L377.285,298.365 L378.233,298.353 L379.38,298.303 L380.442,298.2 L381.319,298.03 L382.006,297.827 L382.697,297.562 L383.393,297.267 L383.893,296.976 L384.496,296.541 L385.103,296.075 L385.713,295.485 L386.122,295.128 L386.532,294.77 L387.151,294.071 L387.566,293.379 L387.774,292.838 L387.878,292.594 L388.086,291.984 L388.191,291.35 L388.191,290.834 L388.295,290.294 L388.4,289.92 L388.4,289.656 L388.4,289.463 L388.4,289.299 L388.295,287.97 L387.878,286.687 L387.67,286.19 L387.462,285.693 L387.048,285.107 L386.532,284.577 L385.917,284.053 L385.204,283.484 L384.799,283.17 L384.496,282.919 L384.194,282.718 L383.993,282.555 L383.793,282.416 L383.593,282.289 L383.294,282.162 L382.797,282.021 L382.401,281.853 L382.006,281.709 L381.124,281.521 L380.929,281.443 L380.637,281.365 L380.055,281.223 L379.38,281.1 L378.709,280.997 L377.947,280.913 L377.285,280.849 L376.72,280.803 L376.251,280.775 L375.97,280.765 L375.597,280.77 L375.04,280.779 L374.578,280.788 L374.301,280.793 L373.383,280.794 L372.471,280.819 L372.017,280.858 L371.475,280.885 L371.024,280.902 L370.665,280.906 L370.306,280.89 L369.948,280.873 L369.591,280.845 L369.324,280.839 L369.057,280.847 L368.702,280.9 L368.347,281.046 L368.082,281.333 L367.817,281.923 L367.729,282.606 L367.729,282.919 L367.817,283.38 L367.905,283.835 L367.905,284.13 L367.905,284.903 L367.905,285.467 L367.905,285.712 L367.905,286.073 L367.905,286.511 L367.905,286.986 L367.905,287.46 L367.905,287.894 L367.905,288.247 L367.817,288.483 L367.817,288.776 L367.817,289.224 L367.817,289.667 L367.905,289.944 L367.905,290.332 L367.905,290.904 L367.905,291.47 L367.817,291.84 L367.817,292.99 L367.817,293.196 L367.817,293.492 L367.817,293.845 L367.817,294.226 L367.817,294.604 L367.817,294.949 L367.817,295.23 L367.905,295.416 L367.905,295.587 L367.905,295.967 L367.905,296.43 L367.817,296.845 L367.817,298.12 L367.817,299.426 Z M376.72,287.886 L377.096,287.903 L377.379,287.919 L377.758,287.958 L378.042,287.99 L378.233,288.034 L378.423,288.108 L378.9,288.339 L379.38,288.649 L379.765,289.094 L379.958,289.727 L379.862,290.254 L379.669,290.698 L379.38,291.037 L378.996,291.249 L378.805,291.286 L378.614,291.337 L378.423,291.383 L378.233,291.403 L377.663,291.464 L377.474,291.51 L377.285,291.556 L376.72,291.649 L376.438,291.63 L376.064,291.53 L375.784,291.279 L375.691,290.806 L375.691,290.64 L375.691,290.387 L375.691,290.134 L375.784,289.968 L375.784,289.547 L375.691,289.128 L375.784,288.54 L376.064,288.157 L376.438,287.949 L376.72,287.886 Z"/><path fill="#00f" d="M296.449,296.177 C296.768,296.491,297.116,296.804,297.378,297.162 C297.842,297.609,298.277,298.102,298.712,298.549 C300.771,300.608,302.512,301.145,303.788,301.548 C304.688,301.816,305.558,302.04,306.457,302.174 C307.589,302.353,308.749,302.353,309.793,302.532 C311.041,302.756,312.491,302.89,312.868,302.89 C314.377,302.89,314.986,302.846,315.827,302.756 C316.263,302.711,318.09,302.667,318.496,302.622 C319.482,302.488,320.73,301.816,321.165,301.235 C321.542,300.832,321.6,300.384,321.6,299.847 C321.6,299.444,321.6,299.176,321.513,298.415 C321.455,297.609,321.397,296.848,321.397,296.043 C321.397,295.64,321.455,293.939,321.455,293.581 C321.455,291.299,320.672,290.538,318.09,290.538 L317.945,290.538 L317.713,290.538 C316.669,290.583,314.812,290.941,314.087,290.941 C313.536,290.941,310.635,290.717,309.59,289.643 C309.242,289.285,308.633,288.256,308.517,287.853 C308.343,287.495,308.314,287.137,308.314,286.779 C308.314,284.899,309.59,284.138,310.2,283.78 C310.635,283.556,311.36,283.154,313.158,283.064 L313.652,283.064 L314.696,283.109 C315.044,283.109,316.379,282.975,316.669,282.975 C316.988,282.975,318.554,283.109,318.815,283.109 C319.889,283.109,321.223,282.975,321.223,280.558 C321.223,280.021,320.875,277.604,320.846,277.067 L320.846,276.754 C320.846,276.262,321.049,274.158,321.049,273.755 C321.049,273.263,321.049,272.458,320.991,272.279 C320.73,271.697,319.541,271.339,319.279,271.249 C317.655,270.757,314.319,270.757,312.375,270.757 C310.2,270.757,309.184,270.936,307.182,271.294 C303.411,272.01,303.237,272.1,300.83,273.576 C298.277,275.098,297.987,275.277,297,276.351 C296.536,276.843,296.101,277.381,295.811,277.918 C295.434,278.544,295.202,279.215,294.883,279.842 C294.535,280.558,294.041,281.23,293.751,281.99 C293.49,282.885,293.2,285.168,293.2,286.152 C293.2,286.6,293.258,286.958,293.548,288.659 C293.664,289.151,293.693,289.688,293.751,290.18 C294.274,293.939,295.666,295.372,296.449,296.177 Z"/><g><path fill="#f00" d="M263.572,231.489 L266.47,231.489 L266.47,239.448 L263.572,239.448 Z"/><path fill="#f00" d="M267.622,229.425 L267.622,229.425 C267.622,230.746,266.458,231.817,265.021,231.817 C263.585,231.817,262.42,230.746,262.42,229.425 C262.42,228.104,263.585,227.033,265.021,227.033 C266.458,227.033,267.622,228.104,267.622,229.425 Z"/><path fill="#f00" d="M266.209,231.313 C271.485,230.28,275.414,230.384,278.781,231.622 C282.148,232.861,279.679,234.615,280.464,236.37 C281.25,238.125,285.179,237.299,290.903,235.131 C286.301,239.466,277.211,242.737,277.434,238.228 C277.658,233.686,271.71,236.163,266.209,238.331 C265.76,236.576,268.006,233.274,266.209,231.313 Z"/></g></g></g></svg>
